<?xml version="1.0" encoding="utf-8"?>
<!-- Generator: Adobe Illustrator 24.1.1, SVG Export Plug-In . SVG Version: 6.00 Build 0)  -->
<svg version="1.1" id="图层_1" xmlns="http://www.w3.org/2000/svg" xmlns:xlink="http://www.w3.org/1999/xlink" x="0px" y="0px"
	 viewBox="0 0 855 300" style="enable-background:new 0 0 855 300;" xml:space="preserve">
<style type="text/css">
	.st0{fill:#FFFFFF;}
</style>
<path class="st0" d="M67.9,262.5H16.4c-9.4,0-16.4-7-16.4-16.4v-63.3c17.6-1.2,31.6-15.2,31.6-32.8c0-18.7-14.1-34-31.6-34V53.9
	c0-9.4,7-16.4,16.4-16.4h50.4v26.9c0,2.3,1.2,3.5,3.5,3.5c2.3,0,3.5-1.2,3.5-3.5V37.5h243.7c9.4,0,16.4,7,16.4,16.4v60.9
	c-18.7,0-32.8,15.2-32.8,34c0,17.6,15.2,32.8,32.8,32.8v63.3c0,9.4-7,16.4-16.4,16.4H73.8V232c0-2.3-1.2-3.5-3.5-3.5
	c-2.3,0-3.5,1.2-3.5,3.5v28.1C66.8,261.3,66.8,261.3,67.9,262.5z M71.5,180.5c-2.3,0-3.5,1.2-3.5,3.5v26.9c0,2.3,1.2,3.5,3.5,3.5
	s3.5-1.2,3.5-3.5V184C75,182.8,72.6,180.5,71.5,180.5z M71.5,132.4c-2.3,0-3.5,1.2-3.5,3.5v26.9c0,2.3,1.2,3.5,3.5,3.5
	s3.5-1.2,3.5-3.5v-26.9C75,133.6,72.6,132.4,71.5,132.4L71.5,132.4z M71.5,83.2c-2.3,0-4.7,1.2-4.7,3.5v26.9c0,2.3,1.2,3.5,3.5,3.5
	c2.3,0,3.5-1.2,3.5-3.5V86.7C75,84.4,72.6,83.2,71.5,83.2L71.5,83.2z M206.2,200.4l3.5,11.7h11.7c8.2,1.2,16.4-1.2,23.4-7
	c3.5-4.7,5.9-23.4,5.9-55.1h-12.9l7-50.4h-57.4v11.7h43.3l-5.9,38.7h-25.8l5.9-30.5l-11.7-1.2l-7,43.3h51.5c1.2,11.7,0,23.4-3.5,34
	c-2.3,3.5-7,5.9-17.6,5.9C215.5,201.5,210.9,201.5,206.2,200.4L206.2,200.4z M145.3,161.7v48H157v-8.2h10.5v5.9h11.7v-67.9h-23.4
	c3.5-8.2,5.9-17.6,7-25.8h18.7V102h-44.5v11.7h14.1c-2.3,16.4-8.2,32.8-17.6,48l5.9,9.4C140.6,168.7,142.9,165.2,145.3,161.7
	L145.3,161.7z M182.7,175.8v11.7h46.9v-11.7H182.7z M167.5,189.8H157v-38.7h10.5V189.8z"/>
<g>
	<g>
		<path class="st0" d="M527.6,130.4c-0.1,3.1-0.7,7.6-1.9,13.5s-2.9,9.9-5.4,12c-2.4,2.1-4.7,3.5-6.9,4.1c-2.2,0.6-6.5,0.9-13.1,0.9
			c-6,0-11.5-0.2-16.4-0.7c-4.9-0.5-8.4-1.9-10.4-4.1c-2-2.3-3.1-6-3.1-11.2V98.2c-10.1,0.6-17,1-20.7,1.1c-0.9,22-5.6,37-13.9,45
			c-8.3,8-19.7,13.8-34,17.5l-7.1-12.5c14.6-3,25.1-8.1,31.3-15.2c6.3-7.1,9.4-18.4,9.4-33.8c-14.2,0.5-23,0.7-26.2,0.7l-3.5-11.4
			c12.2-6.7,23.5-17.3,33.8-32H398V44.9h50c3.7-5.5,6.8-10.9,9.2-16.1l14.1,3.2c-2.3,4.6-4.7,8.9-7.2,13h61.7v12.8H456
			C449,68.4,440.7,78.1,431.4,87c17.2,0,36.5-1.1,58-3.5c-5.7-5.5-10.2-9.4-13.4-11.8l10.1-9.1c13.5,10.7,25.1,22.5,34.8,35.5
			l-11.1,9.5c-2-3.6-4.8-7.6-8.6-11.8c-5.1,0.4-10.7,0.8-16.9,1.2v47.5c0,1.6,1.1,2.6,3.3,3.1c2.2,0.4,6.2,0.6,11.8,0.6
			c5,0,8-0.2,9.1-0.7c1.1-0.4,1.9-1.1,2.5-2c0.6-0.9,1.2-3.6,2-8.1c0.7-4.5,1.1-8.6,1.1-12.4L527.6,130.4z"/>
		<path class="st0" d="M584,31.5c-1.1,4.8-3,10.8-5.5,18.1l-3.8,10.5v100.4h-13.2V89c-1.9,3.5-4.7,7.9-8.6,13l-7.5-13.2
			c10.4-15.3,18.9-35.5,25.6-60.7L584,31.5z M678,158.2h-96.2v-11.6H592V62.4h26.1c1.3-4.5,2.3-8.1,3-10.7h-35.8V39.9h38.9
			c1.5-6.3,2.4-10.1,2.6-11.3l14,1.4c-0.4,2.6-1.2,5.9-2.3,9.9h37.9v11.8h-40.8c-0.5,2.3-1.5,5.8-2.9,10.7h34.7v84.3H678V158.2z
			 M654.1,83.4v-9.5h-48.6v9.5H654.1z M654.3,104.3V93.7h-48.9v10.5H654.3z M654.3,125.8v-11h-48.9v11H654.3z M654.3,146.6v-10.7
			h-48.9v10.7H654.3z"/>
		<path class="st0" d="M746.8,47h-18c-2,10.4-5,21.2-9.1,32.4h23.7v75.1h-12.2v-6.8h-11.5v10.4h-12.4v-53.4c-1,1.8-2.3,3.9-3.9,6.2
			l-7.9-12.8c8-10.4,14.8-27.4,20.2-51.1h-16.9V34.2h47.9V47z M731.2,134.9v-43h-11.5v43H731.2z M804.8,130.7h-57.1v-12.4h57.1
			V130.7z M826.6,88.7c-0.7,17.1-1.7,31.4-2.9,43.1c-1.2,11.7-2.1,18.5-2.7,20.7c-0.6,2.1-1.8,4-3.5,5.5c-1.7,1.5-3.8,2.6-6.1,3.2
			c-2.4,0.6-6.5,0.9-12.6,0.9h-9l-3.8-13.3c2.8,0.3,9.4,0.5,19.7,0.5c1.1,0,1.9-0.5,2.4-1.4c0.5-0.9,1.3-6.3,2.2-16.1
			c0.9-9.8,1.7-20.2,2.3-30.9h-60.4l6.5-49.9l13.1,2.1l-4.6,35.7h32.5l4.3-42.6h-51.5V33.9h66l-5.7,54.8H826.6z"/>
	</g>
	<g>
		<path class="st0" d="M449.3,250.3c-5,2.5-11.4,3.8-19,3.8c-9.8,0-17.7-3.1-23.7-9.3c-5.9-6.2-8.9-14.4-8.9-24.5
			c0-10.6,3.3-19.3,9.9-26.2c6.6-6.9,15.1-10.3,25.4-10.3c6.5,0,12,0.9,16.3,2.7v10.7c-4.8-2.7-10.1-4-16-4
			c-7.4,0-13.4,2.4-17.8,7.3c-4.5,4.9-6.7,11.3-6.7,19.1c0,7.5,2.1,13.6,6.3,18.3c4.2,4.7,9.8,7,16.9,7c6.6,0,12.3-1.5,17.3-4.5
			V250.3z"/>
		<path class="st0" d="M462.6,229.1c0-8,2.3-14.3,6.8-18.9s10.8-6.9,18.6-6.9c7.4,0,13.3,2.2,17.6,6.7s6.5,10.6,6.5,18.4
			c0,7.8-2.3,14.1-6.8,18.8s-10.6,7-18.2,7c-7.4,0-13.4-2.3-17.8-6.8S462.6,236.7,462.6,229.1z M473.1,228.9c0,5.3,1.3,9.5,3.9,12.5
			s6.1,4.5,10.6,4.5c9.3,0,14-5.8,14-17.3c0-5.6-1.2-9.8-3.6-12.7s-5.9-4.4-10.4-4.4c-4.5,0-8.1,1.6-10.6,4.7
			S473.1,223.5,473.1,228.9z"/>
		<path class="st0" d="M571.7,253h-10.3v-7.7h-0.2c-3.5,5.9-8.9,8.8-16.1,8.8c-6.2,0-11.1-2.2-14.7-6.6c-3.6-4.4-5.5-10.3-5.5-17.7
			c0-8.1,2.1-14.5,6.2-19.3s9.4-7.3,16-7.3s11.3,2.5,14.1,7.5h0.2v-29.7h10.3V253z M561.5,224.5c0-3.7-1.2-6.8-3.6-9.3
			c-2.4-2.5-5.3-3.7-8.9-3.7c-4.2,0-7.5,1.6-9.9,4.8s-3.7,7.6-3.7,13.1c0,5.1,1.2,9.1,3.5,12.1c2.3,2.9,5.5,4.4,9.4,4.4
			c3.9,0,7-1.5,9.5-4.4c2.4-2.9,3.7-6.6,3.7-11.1V224.5z"/>
		<path class="st0" d="M631.5,231.5h-33.4c0.4,9.8,5.4,14.7,15,14.7c5.4,0,10.3-1.6,14.7-4.8v8.5c-4.3,2.8-10,4.3-17.1,4.3
			c-7.2,0-12.8-2.2-16.9-6.6s-6.1-10.5-6.1-18.5c0-7.5,2.2-13.7,6.6-18.5s9.9-7.3,16.5-7.3c6.6,0,11.7,2.1,15.3,6.2
			c3.6,4.1,5.5,9.9,5.5,17.1V231.5z M621.5,223.9c0-4.2-1-7.4-2.9-9.6s-4.5-3.3-8-3.3c-3.1,0-5.9,1.2-8.2,3.5s-3.8,5.5-4.3,9.4
			H621.5z"/>
		<path class="st0" d="M685.5,228.1V253H675v-68.1h20.6c7.7,0,13.6,1.8,17.7,5.3c4.1,3.6,6.2,8.7,6.2,15.5c0,6.8-2.4,12.3-7.3,16.5
			s-10.9,6.1-18.1,5.9H685.5z M685.5,193.8v25.5h7.6c10.2,0,15.2-4.4,15.2-13.1c0-8.3-4.9-12.4-14.6-12.4H685.5z"/>
		<path class="st0" d="M732.6,207.6c5-2.9,10.7-4.4,17.2-4.4c12.3,0,18.4,6.3,18.4,19V253h-10v-7.4H758c-3.3,5.7-8.2,8.5-14.8,8.5
			c-4.8,0-8.5-1.3-11.3-3.9c-2.7-2.6-4.1-6-4.1-10.4c0-9.1,5.4-14.5,16.3-16l14.1-1.9c0-7.2-3.2-10.9-9.5-10.9
			c-5.8,0-11.2,1.9-16.1,5.7V207.6z M747.5,230.4c-3.5,0.5-6,1.4-7.4,2.7c-1.4,1.3-2.2,3.3-2.2,5.8c0,2.1,0.8,3.9,2.3,5.3
			c1.6,1.4,3.5,2,6,2c3.5,0,6.3-1.2,8.6-3.7s3.4-5.5,3.4-9.3V229L747.5,230.4z"/>
		<path class="st0" d="M827.7,204.4l-21.4,55c-4.2,11-10.4,16.4-18.5,16.4c-2.6,0-4.8-0.3-6.4-0.8v-8.7c1.7,0.8,3.5,1.1,5.3,1.1
			c3.9,0,6.7-2.2,8.6-6.5l3.4-8.1l-19.2-48.5h11.5l11.7,34.7c0.3,0.7,0.6,2.3,1.1,4.7h0.2c0.1-0.9,0.5-2.5,1.2-4.6l12.2-34.8H827.7z
			"/>
	</g>
</g>
</svg>
