<?xml version="1.0" encoding="utf-8"?>
<!-- Generator: Adobe Illustrator 24.1.1, SVG Export Plug-In . SVG Version: 6.00 Build 0)  -->
<svg version="1.1" id="图层_1" xmlns="http://www.w3.org/2000/svg" xmlns:xlink="http://www.w3.org/1999/xlink" x="0px" y="0px"
	 viewBox="0 0 2000 706" style="enable-background:new 0 0 2000 706;" xml:space="preserve">
<style type="text/css">
	.st0{fill:#1296DB;}
	.st1{fill:#3F3A37;}
</style>
<desc>Created with Sketch.</desc>
<g id="Page-1">
	<g id="alipay">
		<path id="Shape" class="st0" d="M172.8,383.4c-17.7,1.7-50.9,9.6-69,25.6C49.3,456.3,81.9,542.8,192,542.8
			c64,0,128-40.8,178.2-106.1C298.8,401.9,238.2,377,172.8,383.4L172.8,383.4z"/>
		<path id="Shape_1_" class="st0" d="M583.6,443.2c101.9,34,125.1,35.9,125.1,35.9v-366C708.6,50.6,657.9,0,595.3,0H114.1
			C51.5,0,0.7,50.6,0.7,113.1v479.7c0,62.4,50.7,113.1,113.4,113.1h481.1c62.6,0,113.4-50.6,113.4-113.1v-4.6
			c0,0-184.1-76.5-277.1-121.1C369.2,543.6,288.7,590,205.2,590C64,590,16,466.8,82.9,385.6c14.6-17.7,39.4-34.6,77.9-44
			c60.2-14.7,156.1,9.2,245.9,38.8c16.1-29.7,29.7-62.4,39.9-97.2H169.7v-28h142.7v-50.1H139.6v-28h172.9v-71.5
			c0,0,0-12.1,12.2-12.1h69.8v83.5h170.9v28H394.4v50.1H534C520.6,309.8,500.3,360,474.9,404C517.2,419.3,555.3,433.8,583.6,443.2
			L583.6,443.2z"/>
		<path id="Shape_2_" class="st1" d="M1716.2,110.7h202.6v40.1h72.4v-47.5c0-0.1,0-0.2,0-0.3c0-10.7-8.4-19.3-18.7-19.5h-117.1V46.1
			h-75.7v37.4h-135.7v67.3h72.4V110.7z"/>
		<polygon id="Shape_3_" class="st1" points="1277.8,49.5 1203.6,225 1260.5,225 1260.5,433.8 1322.8,433.8 1322.8,156.8 
			1300.2,156.8 1347.1,49.5 		"/>
		<path id="Shape_4_" class="st1" d="M1999.5,424.2l-22.7-76.8c-1.5-4.9-5.9-8.4-11.2-8.5h-60.2l17.5,59h-70.8V283.7h139.1v-27.2
			h-139.1v-53.8h139.1v-27.2h-347.2v27.2H1783v53.8h-139.1v27.2H1783V398h-139.1v27.2h355.7l-0.3-0.9L1999.5,424.2L1999.5,424.2z"/>
		<path id="Shape_5_" class="st1" d="M1437,193.4c-2.4-4.8-7.2-8.2-12.8-8.2h-53.9l42,132.2h63.8L1437,193.4L1437,193.4z"/>
		<path id="Shape_6_" class="st1" d="M1573.4,52.7h-64.7v67.6h-159.4v27.2h159.4v243c-0.6,5.5-4.9,9.9-10.4,10.2h-32.9v28.2h83.8
			c13.3-0.6,23.9-11.6,24.2-25.2V147.5h26.3v-27.2h-26.3V52.7L1573.4,52.7z"/>
		<path id="Shape_7_" class="st1" d="M1169.7,175.8h-124.3v-44.5h144.1v-27.7h-144.1V47.2l-64.2,0c-7,0-12.7,5.9-12.7,13.2v43.2
			H825.4v27.7h143.1v44.5H847.8v27.7h240.5c0,0-13.3,52-79.3,108c-59.1-44.7-78.9-80.4-78.9-80.4h-64.5
			c26.1,45.2,63.2,81.5,103.1,110.2c-36.7,23.8-84.3,46.8-145.8,65.2v33.2c0,0,94.9-17.9,186.7-72c91.9,53.6,184.2,72,184.2,72
			v-31.4c-59.1-21.5-105.9-45.1-142.6-68C1104.4,301,1151,247.4,1169.7,175.8L1169.7,175.8z"/>
		<path id="Shape_8_" class="st1" d="M965.8,619.3l10.7,32.4h30.1l-59.3-161.1h-23l-59.1,161.1h30.1l11.2-32.4H965.8L965.8,619.3z
			 M936.7,532.2l22.3,66.8h-45.4L936.7,532.2L936.7,532.2z"/>
		<polygon id="Shape_9_" class="st1" points="1101.7,490.7 1101.7,651.7 1199.2,651.7 1199.2,629.8 1130.7,629.8 1130.7,490.7 		"/>
		<polygon id="Shape_10_" class="st1" points="1305.5,490.7 1334.5,490.7 1334.5,651.7 1305.5,651.7 		"/>
		<path id="Shape_11_" class="st1" d="M1514.5,490.7h-62.6v161.1h29v-61.9h33.6c31.2,0,53.1-20.4,53.1-49.6
			S1545.7,490.7,1514.5,490.7L1514.5,490.7z M1512.9,567.7h-32v-55.1h32c16.1,0,25.7,14.1,25.7,27.7
			C1538.5,553.6,1529.5,567.7,1512.9,567.7z"/>
		<path id="Shape_12_" class="st1" d="M1737.7,619.3l10.7,32.4h30.1l-59.3-161.1h-23l-59.1,161.1h30.1l11.2-32.4H1737.7
			L1737.7,619.3z M1708.5,532.2l22.3,66.8h-45.4L1708.5,532.2L1708.5,532.2z"/>
		<polygon id="Shape_13_" class="st1" points="1939.9,490.7 1908.3,559.3 1876.2,490.7 1844.9,490.7 1893.7,585.6 1893.7,651.7 
			1922.4,651.7 1922.4,585.6 1922.6,585.2 1971.2,490.7 		"/>
	</g>
</g>
</svg>
