<?xml version="1.0" encoding="utf-8"?>
<!-- Generator: Adobe Illustrator 24.1.1, SVG Export Plug-In . SVG Version: 6.00 Build 0)  -->
<svg version="1.1" id="图层_1" xmlns="http://www.w3.org/2000/svg" xmlns:xlink="http://www.w3.org/1999/xlink" x="0px" y="0px"
	 viewBox="0 0 2000 706" style="enable-background:new 0 0 2000 706;" xml:space="preserve">
<style type="text/css">
	.st0{fill:#FFFFFF;}
</style>
<g>
	<desc>Created with Sketch.</desc>
	<path id="XMLID_81_" class="st0" d="M254.8,438.2c-3.1,1.6-6.7,2.5-10.5,2.5c-8.7,0-16.3-4.8-20.3-11.9l-1.5-3.3l-63.5-139.2
		c-0.7-1.5-1.1-3.2-1.1-4.9c0-6.4,5.2-11.6,11.6-11.6c2.6,0,5,0.9,7,2.3l74.9,53.3c5.5,3.6,12,5.7,19,5.7c4.2,0,8.2-0.8,11.9-2.1
		l352.2-156.7c-63.1-74.4-167.1-123-284.7-123c-192.5,0-348.6,130-348.6,290.5c0,87.5,47,166.3,120.4,219.6
		c5.9,4.2,9.8,11.1,9.8,18.9c0,2.6-0.6,4.9-1.2,7.4c-5.9,21.9-15.3,57-15.7,58.6c-0.7,2.7-1.9,5.6-1.9,8.5c0,6.4,5.2,11.6,11.6,11.6
		c2.5,0,4.6-0.9,6.7-2.2l76.3-44.1c5.7-3.3,11.8-5.4,18.5-5.4c3.6,0,7,0.5,10.2,1.5c35.6,10.2,74,15.9,113.8,15.9
		c192.5,0,348.6-130.1,348.6-290.5c0-48.6-14.4-94.4-39.7-134.6L257.4,436.7L254.8,438.2z"/>
	<g>
		<rect id="XMLID_80_" x="1268" y="193.1" class="st0" width="156.1" height="14"/>
		<rect id="XMLID_79_" x="1268" y="236.8" class="st0" width="156.1" height="15.1"/>
		<path id="XMLID_76_" class="st0" d="M1420.1,366.1v-84.5H1272v84.5H1420.1z M1287,295.6h118v56.5h-118V295.6z"/>
		<path id="XMLID_75_" class="st0" d="M1225.2,374.9V180.5c8.8-19.1,16.7-39.6,23.1-60.4l-14-8.1c-13.8,48.5-34,92.7-59.3,129.6
			l8.3,14.3c8.8-13,18.1-28.3,26.8-44.3v163.2H1225.2z"/>
		<path id="XMLID_74_" class="st0" d="M1792.2,374.9V180.5c8.8-19.1,16.7-39.6,23.1-60.4l-14-8.1c-13.8,48.5-34,92.7-59.3,129.6
			l8.3,14.3c8.8-13,18.1-28.3,26.8-44.3v163.2H1792.2z"/>
		<path id="XMLID_73_" class="st0" d="M1440.5,148.3h-91.7l9.7-5.6l0.3-0.2l-0.2-0.4c-1.1-2.6-4-8.7-7.1-15.2
			c-2.9-6-5.9-12.3-7.3-15.5l-0.2-0.4l-13.9,8l0.2,0.4c5,9.4,9.3,18,13.1,26.3c0.5,1.1,0.9,2,1,2.6h-91.8v15.1h187.8V148.3z"/>
		<polygon id="XMLID_72_" class="st0" points="1037.7,136.8 1023.7,136.8 1023.7,186 997.3,186 997.3,116.1 983.3,116.1 983.3,186 
			955.8,186 955.8,136.8 941.8,136.8 941.8,200 1037.7,200 		"/>
		<rect id="XMLID_71_" x="946.1" y="227.5" class="st0" width="85" height="14"/>
		<path id="XMLID_70_" class="st0" d="M964.5,295.7v-12.7h42.8v31.2c-0.5,10.9-1.1,14.2-4.8,19.4l-0.2,0.2l8.6,14.9l0.4-0.3
			c7.5-6,20.4-17.1,38.2-32.7l0.3-0.2l-6.8-11.7l-0.3-0.5l-21.5,18.4v-52.7h-71.9v21.2c2,29.1-5.2,49.9-21.6,61.8l-0.3,0.2l7.8,13.5
			l0.3,0.4l0.4-0.3C956.4,349.2,966,325.6,964.5,295.7z"/>
		<path id="XMLID_69_" class="st0" d="M872.6,182.2l8.5,14.6c21.7-21.7,40.3-47.9,54-76.1l-13.1-7.5
			C908.6,140.7,891.6,164.4,872.6,182.2z"/>
		<path id="XMLID_68_" class="st0" d="M868.8,270.1l7.8,13.4l0.3,0.5l0.4-0.5c8.3-9.7,16.4-19.8,24.1-30.3v121.5h14V230.3
			c6.3-11.3,12.4-23.8,18.2-37.4l0.1-0.4l-13.5-7.8l-0.2,0.5C907,217.6,889.9,246,869,269.9L868.8,270.1z"/>
		<path id="XMLID_65_" class="st0" d="M1140.4,178.1v-14h-62.1l0,0c5.4-16.2,11.6-35.2,13.6-51.3l-14.6,0
			c-9.1,42.6-23,79.5-40.8,108.7l8.8,15.3l6.5-13c2.4-4.3,4.4-7.9,5.9-10.7c4.4,37.7,12,68.1,22.7,90.3
			c-10.3,17.8-26.1,36.2-47,54.9l-0.3,0.2l8.1,14l0.3,0.5l0.4-0.4c22.1-20.7,37.5-38.9,45.6-54c9.2,16.5,24.9,36.4,43,54.8l0.4,0.4
			l8.3-14.3l0.2-0.3l-0.3-0.2c-19.5-18.6-34.9-37.9-43.5-54.4c15.9-29,25.8-71.5,29.4-126.3H1140.4z M1088.6,286.9
			c-9.2-23.8-16.1-56.1-20.3-96.1c1.4-4.2,3.2-8.5,5.3-12.7h37.5C1108.2,223.8,1100.6,260.4,1088.6,286.9z"/>
		<path id="XMLID_35_" class="st0" d="M1724.2,163.3v-14.9h-119.3v-37.9h-15.3v37.9h-118.2v14.9h118.2V213h-2.4H1513l0,13.6
			c0,0,11.8,26.6,35.6,55.3c9.6,11.5,20.9,23.6,35.4,35.5c-26.9,16.5-60.5,32.2-107.1,41.3l8.8,15.3c0,0,55.3-11.8,110.3-47.4
			c7.4,4.7,41.4,31.9,105,47c0.1,0,0.1,0,0.2,0l0.3,0.1l6.2-11.8c0,0-16.4-4.3-41.3-13.9c-17.3-6.7-38.9-16.7-59.6-30.7
			c30.8-22.8,58.3-55.3,74.8-97.2l-12.4-7.2h-64h-0.1v-49.7H1724.2z M1663.7,226.1c0,0-15.4,44-68,81.6
			c-25.1-19.1-51-47.2-67.5-81.6H1663.7z"/>
		<path id="XMLID_34_" class="st0" d="M1915.8,355.5c-3.1,0-6,0-8.7,0v15.1c6,0,10.3-0.1,13.2-0.1c14.8,0,22.9-3.2,29.2-9.5
			c6.1-6.1,9.1-15.6,8.7-27.9V192.9h40.5v-15.1h-40.5v-64.7H1943v64.7h-124.5v15.1H1943v140.2C1943,348.4,1933.6,355.5,1915.8,355.5
			z"/>
		<path id="XMLID_33_" class="st0" d="M1882,305.6l15-8.7c-8-16.3-18.7-38-32-64.6l-13.7,8C1860.5,258.2,1870.8,280.1,1882,305.6z"
			/>
	</g>
	<g id="XMLID_1_">
		<path id="XMLID_363_" class="st0" d="M1032.9,502.1c-1.2,4.2-2.3,8.2-3.4,12.1c-4.3,15.3-8.1,28.8-11.1,42.3
			c-2.9-16.2-7.9-35.2-13.2-54.9l-25.3-95.5h-13.1l-27.9,96.3c-6.4,20.8-11.9,39.3-14.9,54.4c-2.8-13.1-6.9-28.9-11.1-45.6l-27-105
			h-14.5l45.3,171.5h12.9l29.1-98.3c7-23,11.5-38.8,14.3-53c2.5,15.2,6.5,31.2,12.4,52.9l25.6,98.3h13.1l51.4-171.5H1061
			L1032.9,502.1z"/>
		<g id="XMLID_50_">
			<path id="XMLID_51_" class="st0" d="M1165.8,561.6c-7,3.2-15.9,6.1-31.8,6.1c-28.3,0-44.6-18.8-45-51.7h88.8l0.2-0.8
				c0.5-2.4,0.5-4.2,0.5-7.5c0-4.6-0.6-20.5-8.8-34.3c-8.4-14.1-21.6-21.3-39.2-21.3c-33.1,0-55.3,26.7-55.3,66.4
				c0,36.9,23,61.6,57.3,61.6c21.8,0,34.2-5.5,38.5-7.9l0.7-0.4L1165.8,561.6z M1129,464.2c10,0,18,3,24,9.1
				c9.6,9.8,10.9,24.3,11,31.1h-74.2C1092.3,485.6,1104.1,464.2,1129,464.2z"/>
		</g>
		<g id="XMLID_48_">
			<path id="XMLID_49_" class="st0" d="M1283,567.7c-44.2,0-70.6-27.9-70.6-74.6c0-48.5,27.2-77.4,72.6-77.4
				c12.6,0,24.5,2.4,33.6,6.7l6.4-11.1l-0.5-0.3c-3.3-1.8-15.8-7.7-39.7-7.7c-52,0-87,36-87,89.5c0,64.4,43.8,87.3,81.2,87.3
				c21.3,0,37.8-4.5,46.2-8.7l0.6-0.3l-6.1-10.6C1309.9,565,1296.3,567.7,1283,567.7z"/>
		</g>
		<g id="XMLID_46_">
			<path id="XMLID_47_" class="st0" d="M1402.7,452.1c-9,0-17.6,2.5-24.9,7.2c-6,3.4-11.5,8.9-15.3,15.2v-71.1h-14.1v174.3h14.1
				v-74.7c0-4.9,0.2-8,1.4-11.7c5.5-15.6,20.1-26.5,35.5-26.5c28,0,32.2,25.3,32.2,40.4v72.4h14.1v-73.7
				C1445.7,454.6,1409.9,452.1,1402.7,452.1z"/>
		</g>
		<g id="XMLID_44_">
			<path id="XMLID_45_" class="st0" d="M1627.4,567c-2.5,0.5-5.9,1-10.7,1c-11.3,0-16.6-7.6-16.6-23.9v-77.4h34.4v-11.9h-34.4v-27.1
				H1586v27.1h-20.4v11.9h20.4v75.1c0,13.9,2.6,23.6,7.8,29.5c4.6,5.9,12,8.9,21.4,8.9c6.7,0,12.5-1,17.3-3.1l0.7-0.3L1627.4,567z"
				/>
		</g>
		<path id="XMLID_41_" class="st0" d="M1729.6,404.8c-12.2,0-24.5,1.1-36.6,3.3l-0.8,0.2v169.3h14.1v-72.1
			c5.5,1.4,11.7,1.7,19.6,1.7c21.7,0,39.7-6.8,50.5-19.2c8.1-8.9,12.1-20.2,12.1-34.6c0-14-4.6-25.7-13.4-33.9
			C1765.2,409.9,1749.5,404.8,1729.6,404.8z M1774.3,454.6c0,25.7-17.3,40.4-47.5,40.4c-6.4,0-14.4-0.3-20.6-2.2v-74.1
			c2.9-0.6,10.6-1.8,22.8-1.8C1757.8,417,1774.3,430.7,1774.3,454.6z"/>
		<g id="XMLID_39_">
			<path id="XMLID_40_" class="st0" d="M1983.6,454.9l-29.7,78.8c-2.7,7.1-5.1,14.1-7.1,20.2c-0.5,1.5-1,2.9-1.4,4.2
				c-2.4-7.9-5.4-16.5-8.1-23.7l-31.7-78.9l-0.3-0.6h-15l45.3,113.3c1.2,3,1.4,4.3,1.4,4.9c0,1.1-0.5,2.6-1.4,4.9
				c-6.1,14.6-14.2,24.4-19.9,30.1c-7.8,7.6-16.4,11.5-20.8,13.1l-0.8,0.3l6.5,11.3c3.2-1.2,11.3-4.8,20.3-12.3
				c15.7-13.7,25.7-34.8,41-74l36.8-91.4H1983.6z"/>
		</g>
		<g id="XMLID_8_">
			<path id="XMLID_9_" class="st0" d="M1555.6,576.4c-1.5-9.5-1.7-19.3-1.7-28.5v-47.3c0-31.8-14.8-48.5-42.8-48.5
				c-12.6,0-26.1,3.9-36,10.5l-0.1,0l5.8,10c7.9-5.4,18.2-8.4,29.1-8.4c0.1,0,0.3,0,0.4,0c8.9,0,15.9,2.5,20.8,7.3
				c5.8,5.8,8.6,14.6,8.6,27.1v2.2c-29.6-0.2-50.6,5.8-62.6,17.8c-7.3,7.2-11,16.5-11,27.5c0,16.5,11.4,34.2,36.5,34.2
				c18.2,0,31.5-9.5,38.4-18.9l1.6,16.1h13.2L1555.6,576.4z M1539.7,537.8c0,1.8-0.2,4.5-1.2,7c-3.9,11.3-15,23.4-34.7,23.4
				c-10.7,0-23.1-6.3-23.1-24.1c0-7.6,2.5-13.9,7.5-18.7c8.6-8.3,24.4-12.5,47-12.5c1.5,0,3,0,4.6,0.1V537.8z"/>
		</g>
		<g id="XMLID_2_">
			<path id="XMLID_3_" class="st0" d="M1879.8,576.4c-1.5-9.5-1.7-19.3-1.7-28.5v-47.3c0-31.8-14.8-48.5-42.8-48.5
				c-12,0-24.8,3.6-34.6,9.6l5.7,9.9c7.7-4.8,17.4-7.4,27.6-7.4c0.1,0,0.3,0,0.4,0c8.9,0,15.9,2.4,20.8,7.3
				c5.8,5.8,8.6,14.6,8.6,27.1v2.2c-29.5-0.2-50.6,5.8-62.6,17.8c-7.3,7.2-11,16.5-11,27.5c0,16.5,11.4,34.2,36.5,34.2
				c18.2,0,31.5-9.5,38.4-18.9l1.6,16.1h13.2L1879.8,576.4z M1863.9,537.8c0,1.8-0.2,4.5-1.2,7c-3.9,11.3-15,23.4-34.7,23.4
				c-10.7,0-23.1-6.3-23.1-24.1c0-7.6,2.5-13.9,7.5-18.7c8.6-8.3,24.4-12.5,47-12.5c1.5,0,3,0,4.6,0.1"/>
		</g>
	</g>
</g>
</svg>
